<svg id="Layer_1" data-name="Layer 1" xmlns="http://www.w3.org/2000/svg" xmlns:xlink="http://www.w3.org/1999/xlink" viewBox="0 0 459.5 192.63"><defs><style>.cls-1{fill:#13343a;}.cls-2{fill:#fff;}.cls-3{fill:url(#linear-gradient);}.cls-4{fill:url(#linear-gradient-2);}.cls-5{fill:url(#linear-gradient-3);}</style><linearGradient id="linear-gradient" x1="232.68" y1="123" x2="232.68" y2="45.95" gradientUnits="userSpaceOnUse"><stop offset="0" stop-color="#cbd51a"/><stop offset="0.15" stop-color="#c6d01b"/><stop offset="0.34" stop-color="#b7c31d"/><stop offset="0.55" stop-color="#9eae21"/><stop offset="0.77" stop-color="#7b9026"/><stop offset="0.85" stop-color="#6b8229"/></linearGradient><linearGradient id="linear-gradient-2" x1="232.68" y1="65.91" x2="232.68" y2="18.23" gradientUnits="userSpaceOnUse"><stop offset="0" stop-color="#cbd51a"/><stop offset="0.27" stop-color="#92a423"/><stop offset="0.47" stop-color="#6b8229"/><stop offset="0.61" stop-color="#4b672d"/><stop offset="0.87" stop-color="#183b33"/><stop offset="1" stop-color="#042a35"/></linearGradient><linearGradient id="linear-gradient-3" x1="232.68" y1="38.23" x2="232.68" gradientUnits="userSpaceOnUse"><stop offset="0" stop-color="#cbd51a"/><stop offset="0" stop-color="#c1cc1c"/><stop offset="0.01" stop-color="#a6b520"/><stop offset="0.01" stop-color="#90a223"/><stop offset="0.02" stop-color="#7f9426"/><stop offset="0.03" stop-color="#748928"/><stop offset="0.04" stop-color="#6d8429"/><stop offset="0.08" stop-color="#6b8229"/><stop offset="0.17" stop-color="#5b752b"/><stop offset="0.42" stop-color="#36542f"/><stop offset="0.65" stop-color="#1a3d32"/><stop offset="0.85" stop-color="#0a2f34"/><stop offset="1" stop-color="#042a35"/></linearGradient></defs><title>logo</title><path class="cls-1" d="M134.09,295.31a12.14,12.14,0,0,0-4.64-3.67,14,14,0,0,0-5.81-1.28,15.71,15.71,0,0,0-6.64,1.37,15.36,15.36,0,0,0-5.08,3.77,17.35,17.35,0,0,0-3.27,5.59,20.2,20.2,0,0,0-1.16,6.88,19,19,0,0,0,1.1,6.48,16.19,16.19,0,0,0,3.18,5.39,15,15,0,0,0,5.08,3.67,16.49,16.49,0,0,0,6.79,1.34,13.5,13.5,0,0,0,6.54-1.53A13.81,13.81,0,0,0,135,319l5,3.73a19.12,19.12,0,0,1-1.72,1.93,16.89,16.89,0,0,1-3.24,2.51,23.19,23.19,0,0,1-4.86,2.2,20.88,20.88,0,0,1-6.58.95,21.42,21.42,0,0,1-9.26-2,22.68,22.68,0,0,1-13-20.43,25.36,25.36,0,0,1,1.65-9.26,21.82,21.82,0,0,1,4.62-7.34,20.63,20.63,0,0,1,7.12-4.8,24,24,0,0,1,9.18-1.72,22.49,22.49,0,0,1,8.41,1.65,15.86,15.86,0,0,1,6.76,5.08Z" transform="translate(-101.25 -137.73)"/><path class="cls-1" d="M147,286H175v5.51H152.87v12.91h20.55v5.5H152.87v13.88h23.18v5.51H147Z" transform="translate(-101.25 -137.73)"/><path class="cls-1" d="M184.37,286H199.6a17.71,17.71,0,0,1,6.85,1.14A11.65,11.65,0,0,1,210.7,290a9.8,9.8,0,0,1,2.17,3.92,15.28,15.28,0,0,1,.61,4.19,11.12,11.12,0,0,1-.73,4,11.24,11.24,0,0,1-2.11,3.49,12.26,12.26,0,0,1-3.36,2.63,11.77,11.77,0,0,1-4.44,1.31l12.29,19.76h-7.34l-11-19.09h-6.55v19.09h-5.87ZM190.24,305H198a20.23,20.23,0,0,0,3.39-.28,9.08,9.08,0,0,0,3-1,5.48,5.48,0,0,0,2.11-2.11,8.39,8.39,0,0,0,0-7.15,5.48,5.48,0,0,0-2.11-2.11,9.08,9.08,0,0,0-3-1,20.23,20.23,0,0,0-3.39-.28h-7.71Z" transform="translate(-101.25 -137.73)"/><path class="cls-1" d="M229.69,291.46H215.75V286h33.76v5.51H235.56v37.8h-5.87Z" transform="translate(-101.25 -137.73)"/><path class="cls-1" d="M255.74,286h5.87v43.31h-5.87Z" transform="translate(-101.25 -137.73)"/><path class="cls-1" d="M309.62,305v21.34a20,20,0,0,1-3.6,1.71,39.91,39.91,0,0,1-4.19,1.26,36.28,36.28,0,0,1-4.41.76,36.8,36.8,0,0,1-4.19.25,24.69,24.69,0,0,1-9.81-1.84,21,21,0,0,1-11.81-12.2,24.66,24.66,0,0,1-1.56-8.71,23.58,23.58,0,0,1,1.69-9,22.22,22.22,0,0,1,4.64-7.22,21.24,21.24,0,0,1,7.13-4.8,23.37,23.37,0,0,1,9.11-1.75,27,27,0,0,1,9.79,1.5,18,18,0,0,1,6.36,4.13L304.61,295a15.22,15.22,0,0,0-5.69-3.58,19.39,19.39,0,0,0-6.3-1,15.72,15.72,0,0,0-11.86,5.07,16.22,16.22,0,0,0-3.3,5.48,19.07,19.07,0,0,0-1.17,6.7,17.85,17.85,0,0,0,1.29,6.82,16.91,16.91,0,0,0,3.54,5.47,16.46,16.46,0,0,0,12,5,28.59,28.59,0,0,0,5.9-.58,16.64,16.64,0,0,0,4.74-1.68v-12h-9.6V305Z" transform="translate(-101.25 -137.73)"/><path class="cls-1" d="M330.54,310.79,314.15,286h7.52l11.81,19,12.17-19h7.15l-16.39,24.84v18.47h-5.87Z" transform="translate(-101.25 -137.73)"/><path class="cls-1" d="M404.91,295.31a12.1,12.1,0,0,0-4.65-3.67,13.91,13.91,0,0,0-5.81-1.28,15.66,15.66,0,0,0-6.63,1.37,15.36,15.36,0,0,0-5.08,3.77,17.17,17.17,0,0,0-3.27,5.59,20,20,0,0,0-1.16,6.88,18.77,18.77,0,0,0,1.1,6.48,16,16,0,0,0,3.18,5.39,14.93,14.93,0,0,0,5.07,3.67,16.52,16.52,0,0,0,6.79,1.34,13.51,13.51,0,0,0,6.55-1.53,14,14,0,0,0,4.77-4.28l5,3.73a17.92,17.92,0,0,1-5,4.44,23.43,23.43,0,0,1-4.86,2.2,20.88,20.88,0,0,1-6.58.95,21.42,21.42,0,0,1-9.26-2,22.68,22.68,0,0,1-13-20.43,25.36,25.36,0,0,1,1.65-9.26,21.82,21.82,0,0,1,4.62-7.34,20.54,20.54,0,0,1,7.12-4.8,23.94,23.94,0,0,1,9.18-1.72,22.53,22.53,0,0,1,8.41,1.65,15.86,15.86,0,0,1,6.76,5.08Z" transform="translate(-101.25 -137.73)"/><path class="cls-1" d="M417.82,286h5.87v18h22.44V286H452v43.31h-5.88V309.44H423.69v19.82h-5.87Z" transform="translate(-101.25 -137.73)"/><path class="cls-1" d="M476.71,286H482l18.54,43.31h-6.85l-4.35-10.71H468.76l-4.28,10.71h-6.85Zm10.52,27.46-8.07-19.87H479l-8.2,19.87Z" transform="translate(-101.25 -137.73)"/><path class="cls-1" d="M506.19,286h5.87v43.31h-5.87Z" transform="translate(-101.25 -137.73)"/><path class="cls-1" d="M523.2,286h7.7l23.85,35.6h.13V286h5.87v43.31h-7.46l-24.1-35.6h-.12v35.6H523.2Z" transform="translate(-101.25 -137.73)"/><path class="cls-2" d="M331.48,180" transform="translate(-101.25 -137.73)"/><polygon class="cls-3" points="232.78 45.95 201.44 75.35 201.44 93.77 232.6 123 263.92 93.6 263.92 75.18 232.78 45.95"/><polygon class="cls-4" points="201.44 47.62 201.44 65.91 232.78 36.51 263.92 65.74 263.92 47.45 232.78 18.23 201.44 47.62"/><polygon class="cls-5" points="201.44 29.39 201.44 38.23 232.78 8.84 263.92 38.06 263.92 29.23 232.78 0 201.44 29.39"/></svg>